<?xml version="1.0" standalone="no"?>
<!DOCTYPE svg PUBLIC "-//W3C//DTD SVG 20010904//EN"
 "http://www.w3.org/TR/2001/REC-SVG-20010904/DTD/svg10.dtd">
<svg version="1.0" xmlns="http://www.w3.org/2000/svg"
 width="400.000000pt" height="172.000000pt" viewBox="0 0 400.000000 172.000000"
 preserveAspectRatio="xMidYMid meet">

<g transform="translate(0.000000,172.000000) scale(0.100000,-0.100000)"
fill="#000000" stroke="none">
<path d="M3190 1195 l0 -355 105 0 105 0 0 178 c0 176 0 179 24 201 31 29 72
22 86 -15 6 -14 10 -102 10 -195 l0 -169 106 0 106 0 -4 213 c-3 237 -10 261
-76 300 -48 28 -137 27 -190 -3 -23 -13 -42 -27 -42 -32 0 -4 -4 -8 -10 -8 -6
0 -10 47 -10 120 l0 120 -105 0 -105 0 0 -355z"/>
<path d="M1550 1449 l0 -91 -40 4 -40 4 0 -66 0 -65 37 0 38 0 5 -155 c4 -129
8 -161 23 -184 32 -48 92 -63 240 -58 l47 2 0 73 0 72 -43 -3 c-63 -5 -68 5
-65 139 l3 114 53 0 52 0 0 63 0 62 -55 0 -55 0 0 90 0 90 -100 0 -100 0 0
-91z"/>
<path d="M530 1371 c-46 -9 -77 -27 -90 -51 -16 -30 -30 -24 -30 13 l0 32 -95
-3 -95 -3 0 -260 0 -259 105 0 105 0 0 180 c0 167 1 181 20 200 22 22 42 25
71 10 18 -10 19 -23 19 -200 l0 -190 105 0 105 0 0 213 c0 182 -2 217 -18 246
-28 56 -119 88 -202 72z"/>
<path d="M2142 1369 c-93 -16 -158 -62 -199 -143 -37 -70 -38 -179 -4 -248 41
-86 127 -136 246 -145 132 -10 239 35 290 122 15 25 25 48 22 51 -11 12 -197
17 -197 6 0 -24 -44 -52 -81 -52 -46 0 -77 25 -85 68 l-6 32 186 0 186 0 0 43
c0 183 -157 300 -358 266z m123 -134 c14 -13 25 -36 25 -50 0 -25 -1 -25 -80
-25 -79 0 -80 0 -80 25 0 36 42 75 80 75 19 0 40 -9 55 -25z"/>
<path d="M2783 1370 c-54 -11 -111 -41 -145 -77 -71 -74 -92 -210 -49 -308 28
-63 54 -91 116 -123 43 -22 63 -26 140 -27 125 0 189 34 236 127 35 68 30 73
-89 82 -63 4 -64 4 -74 -25 -18 -51 -79 -66 -114 -28 -16 18 -19 37 -19 114 0
77 3 96 19 114 30 33 72 28 96 -11 11 -18 21 -37 23 -42 1 -4 42 -5 90 -1 65
6 87 11 87 22 0 28 -50 112 -79 132 -65 46 -158 66 -238 51z"/>
<path d="M872 1148 c4 -230 10 -257 62 -291 33 -22 95 -31 151 -22 36 5 56 16
86 46 l39 39 0 -40 0 -40 100 0 100 0 0 260 0 260 -105 0 -105 0 0 -170 c0
-168 0 -171 -25 -195 -29 -30 -49 -31 -75 -5 -20 20 -21 31 -18 195 l3 175
-108 0 -109 0 4 -212z"/>
<path d="M3492 698 c-5 -7 -21 -37 -36 -65 -14 -29 -30 -53 -35 -53 -11 0 -21
25 -21 55 0 40 -17 37 -34 -5 -28 -69 -24 -77 38 -77 102 0 163 -64 154 -163
l-5 -53 52 6 c30 3 63 11 76 18 22 11 22 12 4 25 -10 8 -33 14 -51 14 -47 0
-53 19 -16 49 17 14 51 43 76 64 74 62 53 76 -43 32 -30 -14 -57 -23 -60 -20
-3 4 3 21 13 38 49 82 60 106 53 113 -9 9 -63 -29 -96 -68 -40 -47 -51 -37
-44 37 6 64 -2 81 -25 53z"/>
<path d="M3305 508 c-38 -35 -40 -39 -40 -97 0 -53 4 -63 30 -91 33 -34 94
-55 139 -46 17 4 49 18 71 33 l40 27 -29 12 c-25 10 -34 9 -60 -7 -45 -27 -90
-24 -126 9 -46 41 -49 81 -10 125 17 20 30 44 28 54 -3 15 -10 11 -43 -19z"/>
<path d="M3378 503 c-16 -4 -17 -7 -3 -34 18 -33 81 -99 96 -99 17 0 29 48 19
74 -14 39 -73 69 -112 59z"/>
<path d="M1675 490 c-4 -6 5 -10 19 -10 25 0 26 -2 26 -60 0 -33 4 -60 10 -60
6 0 10 27 10 60 0 58 1 60 26 60 14 0 23 4 19 10 -3 6 -28 10 -55 10 -27 0
-52 -4 -55 -10z"/>
<path d="M1890 430 c0 -40 4 -70 10 -70 6 0 10 30 10 70 0 40 -4 70 -10 70 -6
0 -10 -30 -10 -70z"/>
<path d="M1930 430 c0 -40 4 -70 10 -70 6 0 10 6 10 14 0 26 20 28 39 4 11
-13 23 -20 27 -16 4 5 0 16 -9 26 -21 23 -21 31 0 54 9 10 12 18 6 18 -5 0
-18 -9 -28 -20 -27 -29 -35 -25 -35 20 0 22 -4 40 -10 40 -6 0 -10 -30 -10
-70z"/>
<path d="M2380 426 c0 -36 5 -68 10 -71 6 -4 10 20 10 64 0 41 -4 71 -10 71
-6 0 -10 -28 -10 -64z"/>
<path d="M2620 465 c0 -21 -3 -24 -17 -17 -35 18 -63 -5 -63 -50 0 -33 14 -42
63 -43 l37 -1 0 68 c0 39 -4 68 -10 68 -5 0 -10 -11 -10 -25z m-12 -34 c21
-13 11 -55 -14 -59 -30 -4 -48 21 -34 47 11 22 27 26 48 12z"/>
<path d="M1780 441 c-14 -27 -13 -47 6 -65 19 -20 58 -21 74 -1 10 12 6 13
-23 8 -20 -3 -37 -1 -41 6 -5 7 5 11 29 11 23 0 38 6 41 15 16 40 -65 64 -86
26z m60 -6 c11 -13 8 -15 -20 -15 -28 0 -31 2 -20 15 7 8 16 15 20 15 4 0 13
-7 20 -15z"/>
<path d="M2034 435 c-15 -23 -15 -27 0 -50 11 -17 26 -25 46 -25 20 0 35 8 46
25 15 23 15 27 0 50 -11 17 -26 25 -46 25 -20 0 -35 -8 -46 -25z m70 -1 c19
-19 20 -26 4 -42 -18 -18 -46 -14 -58 7 -7 15 -6 23 6 35 19 20 29 20 48 0z"/>
<path d="M2150 410 c0 -27 5 -50 10 -50 6 0 10 15 10 33 0 37 15 58 36 50 9
-3 14 -20 14 -44 0 -21 5 -39 10 -39 6 0 10 15 10 33 0 37 15 58 36 50 9 -3
14 -20 14 -44 0 -21 5 -39 11 -39 6 0 9 19 7 48 l-3 47 -77 3 -78 2 0 -50z"/>
<path d="M2453 453 c-20 -4 -23 -10 -23 -56 0 -57 16 -55 22 3 2 27 7 35 23
35 16 0 21 -8 23 -35 5 -52 22 -62 22 -13 0 38 -20 75 -38 72 -4 -1 -17 -4
-29 -6z"/>
<path d="M2682 444 c-27 -18 -29 -55 -4 -77 25 -22 48 -21 72 3 23 23 25 40 8
62 -20 25 -51 30 -76 12z m59 -20 c17 -21 0 -49 -32 -49 -18 0 -25 6 -27 24
-6 38 34 55 59 25z"/>
<path d="M2808 452 c-24 -3 -26 -7 -26 -48 0 -24 4 -46 9 -50 5 -3 9 10 9 29
0 38 21 63 45 53 10 -3 15 -19 15 -46 0 -25 4 -39 10 -35 12 7 13 65 2 81 -10
14 -32 20 -64 16z"/>
<path d="M2910 440 c-24 -24 -25 -38 -4 -68 17 -25 56 -29 73 -8 9 11 4 13
-25 12 -22 -1 -39 4 -41 12 -3 8 8 12 36 12 47 0 55 19 19 44 -29 20 -34 20
-58 -4z m58 -17 c2 -9 -7 -13 -28 -13 -28 0 -31 2 -20 15 15 18 41 16 48 -2z"/>
<path d="M3028 452 c-30 -6 -29 -32 2 -50 38 -22 38 -36 0 -28 -36 7 -41 -11
-5 -20 52 -13 75 40 25 57 -35 13 -29 34 6 25 13 -4 24 -2 24 3 0 11 -29 18
-52 13z"/>
<path d="M3168 452 c-27 -6 -21 -18 9 -17 14 0 28 -5 30 -12 3 -7 -3 -9 -17
-6 -25 7 -61 -23 -53 -43 7 -18 36 -26 67 -18 21 5 26 12 26 38 0 47 -22 67
-62 58z m42 -62 c0 -6 -7 -13 -15 -16 -20 -8 -48 3 -40 16 8 13 55 13 55 0z"/>
<path d="M1501 409 c-1 -44 0 -46 25 -45 35 1 53 28 34 51 -7 9 -22 14 -31 12
-11 -3 -20 2 -22 12 -3 9 -5 -5 -6 -30z m49 -12 c0 -19 -10 -27 -26 -20 -21 8
-17 33 6 33 11 0 20 -6 20 -13z"/>
<path d="M3100 399 c0 -31 4 -48 10 -44 6 3 10 26 10 51 0 24 -4 44 -10 44 -5
0 -10 -23 -10 -51z"/>
<path d="M1581 423 c-1 -7 4 -24 11 -38 10 -22 9 -28 -3 -36 -12 -7 -12 -9 2
-9 16 0 57 75 46 86 -3 3 -8 -4 -12 -15 -8 -27 -19 -27 -33 2 -6 12 -11 17
-11 10z"/>
</g>
</svg>
