<?xml version="1.0" standalone="no"?>
<!DOCTYPE svg PUBLIC "-//W3C//DTD SVG 20010904//EN"
 "http://www.w3.org/TR/2001/REC-SVG-20010904/DTD/svg10.dtd">
<svg version="1.0" xmlns="http://www.w3.org/2000/svg"
 width="127.000000pt" height="61.000000pt" viewBox="0 0 127.000000 61.000000"
 preserveAspectRatio="xMidYMid meet">

<g transform="translate(0.000000,61.000000) scale(0.100000,-0.100000)"
fill="#000000" stroke="none">
<path d="M358 571 c-41 -9 -86 -35 -95 -57 -9 -25 -23 -15 -23 19 l0 32 -95 0
-95 0 0 -262 0 -263 105 0 105 0 0 180 c0 167 1 181 20 200 22 22 42 25 71 10
18 -10 19 -23 19 -200 l0 -190 105 0 105 0 0 210 c0 236 -6 264 -61 297 -39
24 -108 34 -161 24z"/>
<path d="M802 562 l-104 -3 4 -212 c3 -191 5 -215 23 -247 52 -89 215 -96 285
-12 l30 37 0 -43 0 -42 100 0 100 0 0 260 0 260 -107 0 -108 0 3 -170 c3 -170
3 -170 -22 -195 -30 -30 -50 -31 -76 -5 -18 18 -19 34 -19 196 0 97 -1 177 -3
178 -2 0 -50 0 -106 -2z"/>
</g>
</svg>
